<svg width="321.7850036621094px" height="159.2px" xmlns="http://www.w3.org/2000/svg" viewBox="89.10749816894531 -4.599999999999994 321.7850036621094 159.2" style="background: rgba(0, 0, 0, 0);" preserveAspectRatio="xMidYMid"><defs><linearGradient id="editing-gradient-gradient" x1="0" x2="1" y1="0.5" y2="0.5" gradientUnits="objectBoundingBox"><stop offset="0" stop-color="#f0f"></stop><stop offset="1" stop-color="#0ff"></stop></linearGradient></defs><g><g transform="translate(136.96001648902893, 89.4000015258789)"><path d="M19.56 0L19.56 0L4.20 0L4.20 0Q3.44 0 3.10-0.34L3.10-0.34L3.10-0.34Q2.76-0.68 2.76-1.44L2.76-1.44L2.76-27.36L2.76-27.36Q2.76-28.12 3.10-28.46L3.10-28.46L3.10-28.46Q3.44-28.80 4.20-28.80L4.20-28.80L16.96-28.80L16.96-28.80Q20.88-28.80 22.76-27.30L22.76-27.30L22.76-27.30Q24.64-25.80 24.64-22.68L24.64-22.68L24.64-20.76L24.64-20.76Q24.64-19.08 24.06-18.02L24.06-18.02L24.06-18.02Q23.48-16.96 22.28-16.44L22.28-16.44L22.28-16.44Q24.84-16.20 26.08-14.68L26.08-14.68L26.08-14.68Q27.32-13.16 27.32-10.24L27.32-10.24L27.32-6.56L27.32-6.56Q27.32-3.20 25.42-1.60L25.42-1.60L25.42-1.60Q23.52 0 19.56 0ZM7.20-25.20L7.20-3.60L17.96-3.60L17.96-3.60Q19.64-3.60 20.68-3.90L20.68-3.90L20.68-3.90Q21.72-4.20 22.26-4.72L22.26-4.72L22.26-4.72Q22.80-5.24 23-5.98L23-5.98L23-5.98Q23.20-6.72 23.20-7.60L23.20-7.60L23.20-10.16L23.20-10.16Q23.20-11.16 23.02-12L23.02-12L23.02-12Q22.84-12.84 22.28-13.46L22.28-13.46L22.28-13.46Q21.72-14.08 20.68-14.42L20.68-14.42L20.68-14.42Q19.64-14.76 18-14.76L18-14.76L18-14.76Q19.72-15.20 20.14-16.20L20.14-16.20L20.14-16.20Q20.56-17.20 20.56-18.40L20.56-18.40L20.56-20.96L20.56-20.96Q20.56-21.84 20.36-22.60L20.36-22.60L20.36-22.60Q20.16-23.36 19.60-23.94L19.60-23.94L19.60-23.94Q19.04-24.52 18-24.86L18-24.86L18-24.86Q16.96-25.20 15.32-25.20L15.32-25.20L7.20-25.20ZM7.60-24.80L15.32-24.80L15.32-24.80Q18.32-24.80 19.24-23.68L19.24-23.68L19.24-23.68Q20.16-22.56 20.16-20.96L20.16-20.96L20.16-18.40L20.16-18.40Q20.16-17.68 20.02-17.02L20.02-17.02L20.02-17.02Q19.88-16.36 19.38-15.86L19.38-15.86L19.38-15.86Q18.88-15.36 17.92-15.06L17.92-15.06L17.92-15.06Q16.96-14.76 15.32-14.76L15.32-14.76L7.60-14.76L7.60-24.80ZM15.16-22L11.76-22L11.76-17.68L15.16-17.68L15.16-17.68Q15.92-17.68 16.30-18.08L16.30-18.08L16.30-18.08Q16.68-18.48 16.68-19.28L16.68-19.28L16.68-20.40L16.68-20.40Q16.68-21.20 16.30-21.60L16.30-21.60L16.30-21.60Q15.92-22 15.16-22L15.16-22ZM7.60-14.36L18-14.36L18-14.36Q21-14.36 21.90-13.16L21.90-13.16L21.90-13.16Q22.80-11.96 22.80-10.16L22.80-10.16L22.80-7.60L22.80-7.60Q22.80-5.96 21.88-4.98L21.88-4.98L21.88-4.98Q20.96-4 17.96-4L17.96-4L7.60-4L7.60-14.36ZM16.96-11.52L11.76-11.52L11.76-6.80L16.96-6.80L16.96-6.80Q17.72-6.80 18.10-7.20L18.10-7.20L18.10-7.20Q18.48-7.60 18.48-8.40L18.48-8.40L18.48-9.96L18.48-9.96Q18.48-10.76 18.10-11.14L18.10-11.14L18.10-11.14Q17.72-11.52 16.96-11.52L16.96-11.52ZM49.60 0L32.56 0L32.56 0Q31.80 0 31.46-0.34L31.46-0.34L31.46-0.34Q31.12-0.68 31.12-1.44L31.12-1.44L31.12-6.20L31.12-6.20Q31.12-6.96 31.46-7.30L31.46-7.30L31.46-7.30Q31.80-7.64 32.56-7.64L32.56-7.64L36.52-7.64L36.52-21.08L32.56-21.08L32.56-21.08Q31.80-21.08 31.46-21.42L31.46-21.42L31.46-21.42Q31.12-21.76 31.12-22.52L31.12-22.52L31.12-27.36L31.12-27.36Q31.12-28.12 31.46-28.46L31.46-28.46L31.46-28.46Q31.80-28.80 32.56-28.80L32.56-28.80L49.60-28.80L49.60-28.80Q50.36-28.80 50.70-28.46L50.70-28.46L50.70-28.46Q51.04-28.12 51.04-27.36L51.04-27.36L51.04-22.52L51.04-22.52Q51.04-21.76 50.70-21.42L50.70-21.42L50.70-21.42Q50.36-21.08 49.60-21.08L49.60-21.08L45.72-21.08L45.72-7.64L49.60-7.64L49.60-7.64Q50.36-7.64 50.70-7.30L50.70-7.30L50.70-7.30Q51.04-6.96 51.04-6.20L51.04-6.20L51.04-1.44L51.04-1.44Q51.04-0.68 50.70-0.34L50.70-0.34L50.70-0.34Q50.36 0 49.60 0L49.60 0ZM34.72-3.60L47.44-3.60L47.44-4L41.32-4L41.32-24.80L47.44-24.80L47.44-25.20L34.72-25.20L34.72-24.80L40.92-24.80L40.92-4L34.72-4L34.72-3.60ZM60.68-24.80L69.40-24.80L69.40-24.80Q71.52-24.80 72.54-23.64L72.54-23.64L72.54-23.64Q73.56-22.48 73.56-20.64L73.56-20.64L73.56-17.84L73.56-17.84Q73.56-15.64 72.72-14.44L72.72-14.44L72.72-14.44Q71.88-13.24 69.40-13.24L69.40-13.24L60.68-13.24L60.68-24.80ZM68-21.60L65-21.60L65-16.48L68-16.48L68-16.48Q69.04-16.48 69.40-17.02L69.40-17.02L69.40-17.02Q69.76-17.56 69.76-18.36L69.76-18.36L69.76-19.72L69.76-19.72Q69.76-20.52 69.40-21.06L69.40-21.06L69.40-21.06Q69.04-21.60 68-21.60L68-21.60ZM60.28-3.60L60.68-3.60L60.68-12.88L72-12.88L72-12.88Q74.28-12.88 75.36-11.90L75.36-11.90L75.36-11.90Q76.44-10.92 76.44-8.96L76.44-8.96L76.44-3.60L76.84-3.60L76.84-8.96L76.84-8.96Q76.84-11.04 75.64-12.14L75.64-12.14L75.64-12.14Q74.44-13.24 72-13.24L72-13.24L71.56-13.24L71.56-13.24Q73-13.68 73.48-14.86L73.48-14.86L73.48-14.86Q73.96-16.04 73.96-17.88L73.96-17.88L73.96-20.64L73.96-20.64Q73.96-22.60 72.84-23.90L72.84-23.90L72.84-23.90Q71.72-25.20 69.40-25.20L69.40-25.20L60.28-25.20L60.28-3.60ZM63.56 0L63.56 0L57.40 0L57.40 0Q56.64 0 56.30-0.34L56.30-0.34L56.30-0.34Q55.96-0.68 55.96-1.44L55.96-1.44L55.96-27.36L55.96-27.36Q55.96-28.12 56.30-28.46L56.30-28.46L56.30-28.46Q56.64-28.80 57.40-28.80L57.40-28.80L70.72-28.80L70.72-28.80Q75.20-28.80 76.90-26.94L76.90-26.94L76.90-26.94Q78.60-25.08 78.60-22.12L78.60-22.12L78.60-20.28L78.60-20.28Q78.60-18.60 78.10-17.42L78.10-17.42L78.10-17.42Q77.60-16.24 76.36-15.72L76.36-15.72L76.36-15.72Q78.52-15.48 79.86-13.96L79.86-13.96L79.86-13.96Q81.20-12.44 81.20-9.92L81.20-9.92L81.20-1.44L81.20-1.44Q81.20-0.68 80.86-0.34L80.86-0.34L80.86-0.34Q80.52 0 79.76 0L79.76 0L73.56 0L73.56 0Q72.80 0 72.46-0.34L72.46-0.34L72.46-0.34Q72.12-0.68 72.12-1.44L72.12-1.44L72.12-7.56L72.12-7.56Q72.12-8.44 71.78-8.86L71.78-8.86L71.78-8.86Q71.44-9.28 70.60-9.28L70.60-9.28L65-9.28L65-1.44L65-1.44Q65-0.68 64.66-0.34L64.66-0.34L64.66-0.34Q64.32 0 63.56 0ZM99.28 0L99.28 0L92.80 0L92.80 0Q92.04 0 91.70-0.34L91.70-0.34L91.70-0.34Q91.36-0.68 91.36-1.44L91.36-1.44L91.36-21.08L85.48-21.08L85.48-21.08Q84.72-21.08 84.38-21.42L84.38-21.42L84.38-21.42Q84.04-21.76 84.04-22.52L84.04-22.52L84.04-27.36L84.04-27.36Q84.04-28.12 84.38-28.46L84.38-28.46L84.38-28.46Q84.72-28.80 85.48-28.80L85.48-28.80L106.60-28.80L106.60-28.80Q107.36-28.80 107.70-28.46L107.70-28.46L107.70-28.46Q108.04-28.12 108.04-27.36L108.04-27.36L108.04-22.52L108.04-22.52Q108.04-21.76 107.70-21.42L107.70-21.42L107.70-21.42Q107.36-21.08 106.60-21.08L106.60-21.08L100.72-21.08L100.72-1.44L100.72-1.44Q100.72-0.68 100.38-0.34L100.38-0.34L100.38-0.34Q100.04 0 99.28 0ZM95.84-24.80L95.84-3.60L96.24-3.60L96.24-24.80L104.44-24.80L104.44-25.20L87.64-25.20L87.64-24.80L95.84-24.80ZM116.24-25.20L116.24-3.60L116.64-3.60L116.64-14.20L132-14.20L132-3.60L132.40-3.60L132.40-25.20L132-25.20L132-14.60L116.64-14.60L116.64-25.20L116.24-25.20ZM119.56 0L119.56 0L113.36 0L113.36 0Q112.60 0 112.26-0.34L112.26-0.34L112.26-0.34Q111.92-0.68 111.92-1.44L111.92-1.44L111.92-27.36L111.92-27.36Q111.92-28.12 112.26-28.46L112.26-28.46L112.26-28.46Q112.60-28.80 113.36-28.80L113.36-28.80L119.56-28.80L119.56-28.80Q120.32-28.80 120.66-28.46L120.66-28.46L120.66-28.46Q121-28.12 121-27.36L121-27.36L121-18.68L127.68-18.68L127.68-27.36L127.68-27.36Q127.68-28.12 128.02-28.46L128.02-28.46L128.02-28.46Q128.36-28.80 129.12-28.80L129.12-28.80L135.32-28.80L135.32-28.80Q136.08-28.80 136.42-28.46L136.42-28.46L136.42-28.46Q136.76-28.12 136.76-27.36L136.76-27.36L136.76-1.44L136.76-1.44Q136.76-0.68 136.42-0.34L136.42-0.34L136.42-0.34Q136.08 0 135.32 0L135.32 0L129.12 0L129.12 0Q128.36 0 128.02-0.34L128.02-0.34L128.02-0.34Q127.68-0.68 127.68-1.44L127.68-1.44L127.68-10.32L121-10.32L121-1.44L121-1.44Q121-0.68 120.66-0.34L120.66-0.34L120.66-0.34Q120.32 0 119.56 0ZM156.88 0L156.88 0L150.40 0L150.40 0Q149.64 0 149.30-0.34L149.30-0.34L149.30-0.34Q148.96-0.68 148.96-1.44L148.96-1.44L148.96-6.56L142.84-14.76L142.84-14.76Q141.92-16 141.62-16.92L141.62-16.92L141.62-16.92Q141.32-17.84 141.32-19.68L141.32-19.68L141.32-27.36L141.32-27.36Q141.32-28.12 141.66-28.46L141.66-28.46L141.66-28.46Q142.00-28.80 142.76-28.80L142.76-28.80L148.92-28.80L148.92-28.80Q149.68-28.80 150.02-28.46L150.02-28.46L150.02-28.46Q150.36-28.12 150.36-27.36L150.36-27.36L150.36-20.80L150.36-20.80Q150.36-20.40 150.40-19.96L150.40-19.96L150.40-19.96Q150.44-19.52 150.72-19.12L150.72-19.12L152.56-16.24L152.56-16.24Q152.76-15.88 152.98-15.72L152.98-15.72L152.98-15.72Q153.20-15.56 153.52-15.56L153.52-15.56L153.92-15.56L153.92-15.56Q154.24-15.56 154.46-15.72L154.46-15.72L154.46-15.72Q154.68-15.88 154.88-16.24L154.88-16.24L156.72-19.12L156.72-19.12Q157.00-19.52 157.04-19.96L157.04-19.96L157.04-19.96Q157.08-20.40 157.08-20.80L157.08-20.80L157.08-27.36L157.08-27.36Q157.08-28.12 157.42-28.46L157.42-28.46L157.42-28.46Q157.76-28.80 158.52-28.80L158.52-28.80L164.48-28.80L164.48-28.80Q165.24-28.80 165.58-28.46L165.58-28.46L165.58-28.46Q165.92-28.12 165.92-27.36L165.92-27.36L165.92-19.68L165.92-19.68Q165.92-17.84 165.60-16.92L165.60-16.92L165.60-16.92Q165.28-16 164.40-14.76L164.40-14.76L158.32-6.52L158.32-1.44L158.32-1.44Q158.32-0.68 157.98-0.34L157.98-0.34L157.98-0.34Q157.64 0 156.88 0ZM153.84-10.44L154.12-10.44L154.12-10.44Q155.04-10.44 155.74-10.84L155.74-10.84L155.74-10.84Q156.44-11.24 157.08-12.12L157.08-12.12L161.08-17.52L161.08-17.52Q161.56-18.16 161.62-18.94L161.62-18.94L161.62-18.94Q161.68-19.72 161.68-20.60L161.68-20.60L161.68-25.20L161.28-25.20L161.28-20.60L161.28-20.60Q161.28-19.76 161.20-18.98L161.20-18.98L161.20-18.98Q161.12-18.20 160.72-17.68L160.72-17.68L156.72-12.28L156.72-12.28Q156.12-11.52 155.50-11.18L155.50-11.18L155.50-11.18Q154.88-10.84 154.12-10.84L154.12-10.84L153.04-10.84L153.04-10.84Q152.36-10.84 151.68-11.16L151.68-11.16L151.68-11.16Q151.00-11.48 150.48-12.28L150.48-12.28L146.60-17.68L146.60-17.68Q146.20-18.28 146.12-19.02L146.12-19.02L146.12-19.02Q146.04-19.76 146.04-20.60L146.04-20.60L146.04-25.20L145.64-25.20L145.64-20.60L145.64-20.60Q145.64-19.72 145.72-18.92L145.72-18.92L145.72-18.92Q145.80-18.12 146.24-17.52L146.24-17.52L150.12-12.12L150.12-12.12Q150.76-11.24 151.46-10.84L151.46-10.84L151.46-10.84Q152.16-10.44 153.04-10.44L153.04-10.44L153.44-10.44L153.44-3.60L153.84-3.60L153.84-10.44ZM174.52-10.88L174.52-12.12L174.52-12.12Q174.52-13.20 174.70-14.12L174.70-14.12L174.70-14.12Q174.88-15.04 175.16-15.84L175.16-15.84L177.72-22.40L177.72-22.40Q178.12-23.40 178.60-24.10L178.60-24.10L178.60-24.10Q179.08-24.80 180.28-24.80L180.28-24.80L184.20-24.80L184.20-24.80Q185.32-24.80 185.80-24.10L185.80-24.10L185.80-24.10Q186.28-23.40 186.72-22.36L186.72-22.36L189.48-15.84L189.48-15.84Q189.76-15.04 189.94-14.12L189.94-14.12L189.94-14.12Q190.12-13.20 190.12-12.12L190.12-12.12L190.12-10.88L174.52-10.88ZM180.92-20.40L180.92-20.40L179.04-14.32L185.32-14.32L183.44-20.40L183.44-20.40Q183.28-20.76 183.10-20.92L183.10-20.92L183.10-20.92Q182.92-21.08 182.68-21.08L182.68-21.08L181.68-21.08L181.68-21.08Q181.44-21.08 181.26-20.92L181.26-20.92L181.26-20.92Q181.08-20.76 180.92-20.40ZM190.12-10.48L190.12-3.60L190.52-3.60L190.52-12.12L190.52-12.12Q190.52-13.24 190.34-14.18L190.34-14.18L190.34-14.18Q190.16-15.12 189.84-16L189.84-16L187.08-22.52L187.08-22.52Q186.60-23.68 186.06-24.44L186.06-24.44L186.06-24.44Q185.52-25.20 184.20-25.20L184.20-25.20L180.28-25.20L180.28-25.20Q178.92-25.20 178.36-24.44L178.36-24.44L178.36-24.44Q177.80-23.68 177.36-22.56L177.36-22.56L174.80-16L174.80-16Q174.48-15.12 174.30-14.18L174.30-14.18L174.30-14.18Q174.12-13.24 174.12-12.12L174.12-12.12L174.12-3.60L174.52-3.60L174.52-10.48L190.12-10.48ZM178.64-7.04L178.64-1.44L178.64-1.44Q178.64-0.68 178.30-0.34L178.30-0.34L178.30-0.34Q177.96 0 177.20 0L177.20 0L171.32 0L171.32 0Q170.56 0 170.22-0.34L170.22-0.34L170.22-0.34Q169.88-0.68 169.88-1.44L169.88-1.44L169.88-12L169.88-12Q169.88-13.20 170.26-14.76L170.26-14.76L170.26-14.76Q170.64-16.32 171.44-18.40L171.44-18.40L174.92-27.48L174.92-27.48Q175.16-28.16 175.66-28.48L175.66-28.48L175.66-28.48Q176.16-28.80 176.96-28.80L176.96-28.80L187.72-28.80L187.72-28.80Q188.48-28.80 188.98-28.48L188.98-28.48L188.98-28.48Q189.48-28.16 189.72-27.48L189.72-27.48L193.20-18.40L193.20-18.40Q194.00-16.32 194.38-14.76L194.38-14.76L194.38-14.76Q194.76-13.20 194.76-12L194.76-12L194.76-1.44L194.76-1.44Q194.76-0.68 194.42-0.34L194.42-0.34L194.42-0.34Q194.08 0 193.32 0L193.32 0L187.28 0L187.28 0Q186.48 0 186.10-0.34L186.10-0.34L186.10-0.34Q185.72-0.68 185.72-1.44L185.72-1.44L185.72-7.04L178.64-7.04ZM214.28 0L214.28 0L207.80 0L207.80 0Q207.04 0 206.70-0.34L206.70-0.34L206.70-0.34Q206.36-0.68 206.36-1.44L206.36-1.44L206.36-6.56L200.24-14.76L200.24-14.76Q199.32-16 199.02-16.92L199.02-16.92L199.02-16.92Q198.72-17.84 198.72-19.68L198.72-19.68L198.72-27.36L198.72-27.36Q198.72-28.12 199.06-28.46L199.06-28.46L199.06-28.46Q199.40-28.80 200.16-28.80L200.16-28.80L206.32-28.80L206.32-28.80Q207.08-28.80 207.42-28.46L207.42-28.46L207.42-28.46Q207.76-28.12 207.76-27.36L207.76-27.36L207.76-20.80L207.76-20.80Q207.76-20.40 207.80-19.96L207.80-19.96L207.80-19.96Q207.84-19.52 208.12-19.12L208.12-19.12L209.96-16.24L209.96-16.24Q210.16-15.88 210.38-15.72L210.38-15.72L210.38-15.72Q210.60-15.56 210.92-15.56L210.92-15.56L211.32-15.56L211.32-15.56Q211.64-15.56 211.86-15.72L211.86-15.72L211.86-15.72Q212.08-15.88 212.28-16.24L212.28-16.24L214.12-19.12L214.12-19.12Q214.40-19.52 214.44-19.96L214.44-19.96L214.44-19.96Q214.48-20.40 214.48-20.80L214.48-20.80L214.48-27.36L214.48-27.36Q214.48-28.12 214.82-28.46L214.82-28.46L214.82-28.46Q215.16-28.80 215.92-28.80L215.92-28.80L221.88-28.80L221.88-28.80Q222.64-28.80 222.98-28.46L222.98-28.46L222.98-28.46Q223.32-28.12 223.32-27.36L223.32-27.36L223.32-19.68L223.32-19.68Q223.32-17.84 223.00-16.92L223.00-16.92L223.00-16.92Q222.68-16 221.80-14.76L221.80-14.76L215.72-6.52L215.72-1.44L215.72-1.44Q215.72-0.68 215.38-0.34L215.38-0.34L215.38-0.34Q215.04 0 214.28 0ZM211.24-10.44L211.52-10.44L211.52-10.44Q212.44-10.44 213.14-10.84L213.14-10.84L213.14-10.84Q213.84-11.24 214.48-12.12L214.48-12.12L218.48-17.52L218.48-17.52Q218.96-18.16 219.02-18.94L219.02-18.94L219.02-18.94Q219.08-19.72 219.08-20.60L219.08-20.60L219.08-25.20L218.68-25.20L218.68-20.60L218.68-20.60Q218.68-19.76 218.60-18.98L218.60-18.98L218.60-18.98Q218.52-18.20 218.12-17.68L218.12-17.68L214.12-12.28L214.12-12.28Q213.52-11.52 212.90-11.18L212.90-11.18L212.90-11.18Q212.28-10.84 211.52-10.84L211.52-10.84L210.44-10.84L210.44-10.84Q209.76-10.84 209.08-11.16L209.08-11.16L209.08-11.16Q208.40-11.48 207.88-12.28L207.88-12.28L204.00-17.68L204.00-17.68Q203.60-18.28 203.52-19.02L203.52-19.02L203.52-19.02Q203.44-19.76 203.44-20.60L203.44-20.60L203.44-25.20L203.04-25.20L203.04-20.60L203.04-20.60Q203.04-19.72 203.12-18.92L203.12-18.92L203.12-18.92Q203.20-18.12 203.64-17.52L203.64-17.52L207.52-12.12L207.52-12.12Q208.16-11.24 208.86-10.84L208.86-10.84L208.86-10.84Q209.56-10.44 210.44-10.44L210.44-10.44L210.84-10.44L210.84-3.60L211.24-3.60L211.24-10.44Z" fill="url(#editing-gradient-gradient)"></path></g></g><style>text {
  font-size: 64px;
  font-family: Arial Black;
  dominant-baseline: central;
  text-anchor: middle;
}</style></svg>